<?xml version="1.0" encoding="UTF-8"?>
<svg width="482px" height="185px" viewBox="0 0 482 185" version="1.1" xmlns="http://www.w3.org/2000/svg" xmlns:xlink="http://www.w3.org/1999/xlink">
    <!-- Generator: Sketch 46.2 (44496) - http://www.bohemiancoding.com/sketch -->
    <title>Group 2</title>
    <desc>Created with Sketch.</desc>
    <defs></defs>
    <g id="Invision-Exports" stroke="none" stroke-width="1" fill="none" fill-rule="evenodd">
        <g id="Sysco-Logo@2x" transform="translate(-299.000000, -344.000000)" fill-rule="nonzero">
            <g id="Group-2" transform="translate(299.000000, 344.000000)">
                <g id="Group">
                    <path d="M52.7294732,0 C26.1748647,0 0,11.7957128 0,44.0171716 C0,91.7335642 66.1120076,80.3513461 66.1120076,107.81984 C66.1120076,120.833805 50.7895776,126.382637 39.3469388,126.382637 C27.4696535,126.382637 12.764879,122.861263 2.40199336,117.490279 L2.40199336,143.500426 C17.2989274,147.008461 24.6513147,149.058149 41.0626483,149.058149 C71.4970479,149.058149 97.5666825,137.08459 97.5666825,105.485596 C97.5666825,57.1467381 31.5690555,67.7864443 31.5690555,42.7944724 C31.5690555,27.0950145 45.0019174,22.6755127 55.3602278,22.6755127 C65.9427243,22.6755127 79.0324442,25.5299596 88.5306122,29.4559356 L88.7593735,5.1131058 C77.7468059,1.60062442 65.6819364,0 52.7294732,0 Z M231.392027,41.3494643 C209.376042,41.3494643 189.071191,51.2110892 189.071191,73.4731072 C189.071191,110.772102 237.911723,96.9044703 237.911723,117.156815 C237.911723,127.182949 226.510261,129.828425 219.38206,129.828425 C209.74206,129.828425 200.61906,127.258534 191.816327,123.048003 L190.100617,145.056588 C200.367423,147.657603 211.206132,149.502767 221.898434,149.502767 C244.74711,149.502767 267.193166,139.885682 267.193166,115.822962 C267.193166,78.5239665 218.352634,88.9146867 218.352634,72.472717 C218.352634,63.6470517 227.39328,61.0238061 234.937826,61.0238061 C245.209207,61.0238061 252.996241,62.6644462 261.588514,65.4699851 L261.931473,45.2398709 C253.133315,43.4347222 244.591369,41.3494643 231.391844,41.3494643 L231.392027,41.3494643 Z M328.386806,41.3494643 C294.644518,41.3494643 276.114855,65.0431519 276.114855,94.9259207 C276.114855,126.409314 293.994836,149.502767 329.416232,149.502767 C340.941224,149.502767 349.268135,148.462361 357.439487,146.056979 L356.1813,123.826084 C351.363588,125.831311 342.647784,128.605726 334.677741,128.605726 C314.981395,128.605726 305.510679,113.977797 305.510679,94.9259207 C305.510679,75.4738877 316.587299,62.2465054 333.991457,62.2465054 C342.579155,62.2465054 348.06485,63.8204527 353.093023,66.0257575 L355.609397,44.795253 C347.849815,42.5899482 339.705914,41.3494643 328.386806,41.3494643 Z M417.031799,41.3494643 C385.174504,41.3494643 360.642145,62.0553197 360.642145,96.1486199 C360.642145,125.831311 381.404518,149.502767 417.031799,149.502767 C452.874115,149.502767 473.650214,125.831311 473.650214,96.1486199 C473.650214,62.0553197 449.099554,41.3494643 417.031799,41.3494643 Z M473.307072,41.3494643 C468.493935,41.3494643 464.728524,44.9775463 464.728524,49.4637409 C464.728524,53.9988434 468.493935,57.6891719 473.307072,57.6891719 C478.115634,57.6891719 482,53.9988434 482,49.4637409 C482,44.9775463 478.184262,41.3494643 473.421452,41.3494643 L473.307255,41.3494643 L473.307072,41.3494643 Z M163.67869,42.3498545 L110.034172,184.294118 L135.769815,184.294118 L192.159468,42.3498545 L163.67869,42.3498545 Z M473.307072,43.3502448 C476.857447,43.3502448 479.369245,46.062414 479.369245,49.4637409 C479.369245,52.8695139 476.807119,55.7328532 473.307072,55.6883914 C469.802449,55.6883914 467.244898,52.9317604 467.244898,49.5748953 C467.244898,46.1246605 469.903104,43.3502448 473.307072,43.3502448 Z M473.307072,45.5733343 C471.701168,45.5733343 470.415529,45.8134279 469.875653,45.9066199 L469.875653,53.3539696 L472.277646,53.3539696 L472.277646,50.5751078 L473.07831,50.5751078 C473.856099,50.5751078 474.19009,51.0419565 474.336497,51.797807 C474.482905,52.4602876 474.66628,53.0736825 474.908401,53.3539696 L477.539155,53.3539696 C477.392748,53.0736825 477.323937,52.6603657 477.081633,51.575498 C476.838963,50.4861842 476.354172,49.9213416 475.480304,49.685872 L475.480304,49.5748953 C476.546331,49.2903399 477.196013,48.547828 477.196013,47.7964238 C477.196013,47.0405733 476.88014,46.5692784 476.395349,46.2402611 C475.80972,45.8625138 475.059383,45.5733343 473.307072,45.5733343 Z M472.392027,47.2406514 C472.584186,47.2406514 472.899877,47.2406514 473.192691,47.2406514 C474.020807,47.2406514 474.565259,47.5116905 474.565259,48.1298872 C474.565259,48.6500901 473.952178,49.019123 473.07831,49.019123 L472.392027,49.019123 L472.392027,47.2406514 Z M417.031799,62.2465054 C435.474533,62.2465054 444.25439,77.0834045 444.25439,92.9251401 C444.25439,110.176314 438.617712,128.605726 417.031799,128.605726 C395.656346,128.605726 390.037969,109.976236 390.037969,92.9251401 C390.037969,77.4835606 398.79495,62.2465054 417.031799,62.2465054 Z" id="path3061" fill="#008CD2"></path>
                    <path d="M75.9168592,38.6424233 C88.2137835,50.5611694 100.463466,65.0898269 109.340117,82.1243612 C117.286112,97.3767376 121.301627,112.235592 124.178626,127.198481 C124.292005,127.723177 124.665212,127.686991 124.86835,127.275557 C135.440964,109.589675 141.908306,85.5124513 132.450587,67.3651992 C122.534627,48.3313914 98.6966398,39.5653459 76.3184107,37.8058042 C75.5342043,37.7732369 75.3972043,38.1676637 75.9168592,38.6426042" id="path3089" fill="#56B146"></path>
                </g>
            </g>
        </g>
    </g>
</svg>